name Walk3.mot
datacolumns 19
datarows 10
range 1.55500000 1.56400000
endheader

                time	   L_ground_force_vx	   L_ground_force_vy	   L_ground_force_vz	   L_ground_force_px	   L_ground_force_py	   L_ground_force_pz	   R_ground_force_vx	   R_ground_force_vy	   R_ground_force_vz	   R_ground_force_px	   R_ground_force_py	   R_ground_force_pz	   L_ground_torque_x	   L_ground_torque_y	   L_ground_torque_z	   R_ground_torque_x	   R_ground_torque_y	   R_ground_torque_z	
          1.55500000	          0.00000001	         -0.00000008	          0.00000001	         -0.00000000	          0.00000000	         -0.00000000	         -0.12703301	         91.10041884	         12.31878964	          0.00059656	          0.00000000	         -0.00114210	          0.00000000	          0.00000000	          0.00000000	          0.00000000	         -0.15990266	          0.00000000	
          1.55600000	          0.00000001	         -0.00000009	          0.00000001	         -0.00000000	          0.00000000	         -0.00000000	         -1.47505729	        103.27448069	         13.02490792	         -0.01215908	          0.00000000	          0.01452295	          0.00000000	          0.00000000	          0.00000000	          0.00000000	         -0.16506928	          0.00000000	
          1.55700000	          0.00000001	         -0.00000009	          0.00000001	         -0.00000000	          0.00000000	         -0.00000000	         -2.86778088	        115.62601042	         13.73306763	         -0.02485279	          0.00000000	          0.03013070	          0.00000000	          0.00000000	          0.00000000	          0.00000000	         -0.17017483	          0.00000000	
          1.55800000	          0.00000001	         -0.00000009	          0.00000001	         -0.00000000	          0.00000000	         -0.00000000	         -4.30473035	        128.12965779	         14.44070462	         -0.03743943	          0.00000000	          0.04562716	          0.00000000	          0.00000000	          0.00000000	          0.00000000	         -0.17518914	          0.00000000	
          1.55900000	          0.00000001	         -0.00000009	          0.00000001	         -0.00000000	          0.00000000	         -0.00000000	         -5.78550422	        140.75862575	         15.14504858	         -0.04987785	          0.00000000	          0.06096317	          0.00000000	          0.00000000	          0.00000000	          0.00000000	         -0.18007964	          0.00000000	
          1.56000000	          0.00000001	         -0.00000009	          0.00000001	         -0.00000000	          0.00000000	         -0.00000000	         -7.30978666	        153.48472086	         15.84311535	         -0.06213090	          0.00000000	          0.07609453	          0.00000000	          0.00000000	          0.00000000	          0.00000000	         -0.18481134	          0.00000000	
          1.56100000	          0.00000001	         -0.00000009	          0.00000001	         -0.00000000	          0.00000000	         -0.00000000	         -8.87736499	        166.27852008	         16.53170146	         -0.07416528	          0.00000000	          0.09098162	          0.00000000	          0.00000000	          0.00000000	          0.00000000	         -0.18934646	          0.00000000	
          1.56200000	          0.00000001	         -0.00000009	          0.00000001	         -0.00000000	          0.00000000	         -0.00000000	        -10.48815232	        179.10968925	         17.20738313	         -0.08595124	          0.00000000	          0.10558920	          0.00000000	          0.00000000	          0.00000000	          0.00000000	         -0.19364416	          0.00000000	
          1.56300000	          0.00000001	         -0.00000009	          0.00000001	         -0.00000000	          0.00000000	         -0.00000000	        -12.14220729	        191.94745929	         17.86652201	         -0.09746248	          0.00000000	          0.11988614	          0.00000000	          0.00000000	          0.00000000	          0.00000000	         -0.19766004	          0.00000000	
          1.56400000	          0.00000001	         -0.00000009	          0.00000001	         -0.00000000	          0.00000000	         -0.00000000	        -13.83974138	        204.76123587	         18.50528020	         -0.10867587	          0.00000000	          0.13384518	          0.00000000	          0.00000000	          0.00000000	          0.00000000	         -0.20134591	          0.00000000	
